<svg width="200" height="200" viewBox="0 0 200 200" fill="none" xmlns="http://www.w3.org/2000/svg">
  <!-- 章同学头部 - 蓝色章鱼 -->
  <circle cx="100" cy="100" r="80" fill="#1DAAE2"/>
  
  <!-- 眼睛 - 开心的眼睛（眯眯眼） -->
  <path d="M60 85 Q 70 95, 80 85" stroke="black" stroke-width="3" fill="none"/>
  <path d="M120 85 Q 130 95, 140 85" stroke="black" stroke-width="3" fill="none"/>
  
  <!-- 眼睫毛 -->
  <path d="M55 80 Q 65 75, 75 80" stroke="black" stroke-width="2" fill="none"/>
  <path d="M115 80 Q 125 75, 135 80" stroke="black" stroke-width="2" fill="none"/>
  
  <!-- 嘴巴 - 开心的大笑 -->
  <path d="M70 110 Q 100 140, 130 110" stroke="black" stroke-width="3" fill="none"/>
  <path d="M75 120 Q 100 145, 125 120" fill="#FF5C8D" opacity="0.7"/>
  
  <!-- 帽子 - 粉色帽子 -->
  <path d="M40 60 Q 100 20, 160 60 Q 150 40, 100 30 Q 50 40, 40 60 Z" fill="#FF5C8D"/>
  <ellipse cx="100" cy="60" rx="60" ry="10" fill="#FF5C8D"/>
  
  <!-- 帽子顶部装饰 -->
  <circle cx="100" cy="30" r="10" fill="#FF5C8D"/>
  <circle cx="115" cy="57" r="7" fill="#FFD234"/>
  
  <!-- 脸颊 - 更明显 -->
  <circle cx="65" cy="100" r="12" fill="#FF5C8D" opacity="0.7"/>
  <circle cx="135" cy="100" r="12" fill="#FF5C8D" opacity="0.7"/>
  
  <!-- 水泡装饰 -->
  <circle cx="40" cy="70" r="5" fill="white" opacity="0.6"/>
  <circle cx="160" cy="80" r="3" fill="white" opacity="0.6"/>
  <circle cx="50" cy="130" r="4" fill="white" opacity="0.6"/>
  <circle cx="150" cy="120" r="6" fill="white" opacity="0.6"/>
  
  <!-- 快乐的装饰 - 小星星 -->
  <path d="M50 50 L 53 57 L 60 58 L 55 64 L 56 70 L 50 67 L 44 70 L 45 64 L 40 58 L 47 57 Z" fill="#FFD234"/>
  <path d="M150 50 L 153 57 L 160 58 L 155 64 L 156 70 L 150 67 L 144 70 L 145 64 L 140 58 L 147 57 Z" fill="#FFD234"/>
</svg> 